# xmcd
#
# Track frame offsets:
# 150
# 17372
# 30015
# 45722
# 62797
# 78657
# 95970
# 113345
# 127812
# 144992
# 157820
# 173232
# 188147
# 202087
# 218307
# 235600
#
# Disc length: 3346 seconds
#
#
# Revision: 0
# Processed by: cddbd v1.5.2PL0 Copyright (c) Steve Scherf et al.
# Submitted via: FreeRIP 2.96 
#
DISCID=bf0d1010
DTITLE=Nathalia - Country Star
DYEAR=2007
DGENRE=Country
TTITLE0=Você Me Ensinou Amor
TTITLE1=Vou Te Deixar Maluco
TTITLE2=Viver Assim Não é Viver
TTITLE3=Foi Há Muito Tempo Atrás
TTITLE4=Você Vai Voltar Pra Mim
TTITLE5=No Espelho de Um Rio
TTITLE6=Em Cada Nuvem Lá do Céu
TTITLE7=A Fita Vai Andar
TTITLE8=Homem da Estrada
TTITLE9=A procura de Amor
TTITLE10=Alguem Como Eu
TTITLE11=Garra de Peão
TTITLE12=Vou Ser Feliz
TTITLE13=Fronteira do Amor
TTITLE14=Quem Não Queria Ser Eu?
TTITLE15=O Que Poderá Ser de Mim Sem Você?
EXTD=
EXTT0=
EXTT1=
EXTT2=
EXTT3=
EXTT4=
EXTT5=
EXTT6=
EXTT7=
EXTT8=
EXTT9=
EXTT10=
EXTT11=
EXTT12=
EXTT13=
EXTT14=
EXTT15=
PLAYORDER=
